<?xml version="1.0" encoding="UTF-8" standalone="no"?>
<!-- Created with Inkscape (http://www.inkscape.org/) -->
<svg width="1450" height="1450" viewBox="0 0 383.64583 383.64584" version="1.1" id="svg5" sodipodi:docname="arcaflow.svg" inkscape:version="1.2 (dc2aedaf03, 2022-05-15)" inkscape:export-filename="arcaflow.png" inkscape:export-xdpi="16.948965" inkscape:export-ydpi="16.948965" xml:space="preserve" xmlns:inkscape="http://www.inkscape.org/namespaces/inkscape" xmlns:sodipodi="http://sodipodi.sourceforge.net/DTD/sodipodi-0.dtd" xmlns:xlink="http://www.w3.org/1999/xlink" xmlns="http://www.w3.org/2000/svg" xmlns:svg="http://www.w3.org/2000/svg"><sodipodi:namedview id="namedview7" pagecolor="#ffffff" bordercolor="#000000" borderopacity="0.25" inkscape:showpageshadow="2" inkscape:pageopacity="0.0" inkscape:pagecheckerboard="0" inkscape:deskcolor="#d1d1d1" inkscape:document-units="mm" showgrid="false" inkscape:zoom="0.81386662" inkscape:cx="352.02328" inkscape:cy="708.96138" inkscape:window-width="3197" inkscape:window-height="2054" inkscape:window-x="0" inkscape:window-y="0" inkscape:window-maximized="0" inkscape:current-layer="layer1"/><defs id="defs2"><linearGradient inkscape:collect="always" id="linearGradient8836"><stop style="stop-color:#008000;stop-opacity:1;" offset="0" id="stop8832"/><stop style="stop-color:#69ff69;stop-opacity:1;" offset="1" id="stop8834"/></linearGradient><linearGradient inkscape:collect="always" id="linearGradient7273"><stop style="stop-color:#a0a0a0;stop-opacity:1;" offset="0" id="stop7269"/><stop style="stop-color:#6c6c6c;stop-opacity:1;" offset="1" id="stop7271"/></linearGradient><linearGradient inkscape:collect="always" id="linearGradient1404"><stop style="stop-color:#f1ff19;stop-opacity:1;" offset="0" id="stop1400"/><stop style="stop-color:#e33600;stop-opacity:1;" offset="1" id="stop1402"/></linearGradient><radialGradient inkscape:collect="always" xlink:href="#linearGradient1404" id="radialGradient1406-8" cx="872.76624" cy="2218.0591" fx="872.76624" fy="2218.0591" r="850.03741" gradientTransform="matrix(0.15228627,0,0,0.09159318,-1.0802267,-107.5004)" gradientUnits="userSpaceOnUse"/><linearGradient id="linearGradient6216" inkscape:swatch="solid"><stop style="stop-color:#000000;stop-opacity:1;" offset="0" id="stop6214"/></linearGradient><linearGradient id="linearGradient6049" inkscape:swatch="solid"><stop style="stop-color:#b5c6e5;stop-opacity:1;" offset="0" id="stop6047"/></linearGradient><linearGradient id="linearGradient4513" inkscape:swatch="solid"><stop style="stop-color:#0b0b0b;stop-opacity:1;" offset="0" id="stop4511"/></linearGradient><linearGradient id="linearGradient4507" inkscape:swatch="solid"><stop style="stop-color:#5687e3;stop-opacity:1;" offset="0" id="stop4505"/></linearGradient><linearGradient inkscape:collect="always" xlink:href="#linearGradient6049" id="linearGradient6218" x1="60.014744" y1="77.255188" x2="66.828262" y2="77.255188" gradientUnits="userSpaceOnUse" gradientTransform="translate(14.570396,-19.653092)"/><linearGradient inkscape:collect="always" xlink:href="#linearGradient6049" id="linearGradient6218-4" x1="60.014744" y1="77.255188" x2="66.828262" y2="77.255188" gradientUnits="userSpaceOnUse" gradientTransform="matrix(0.65712274,-0.21118961,0,0.81921061,36.565164,17.757602)"/><linearGradient inkscape:collect="always" xlink:href="#linearGradient6049" id="linearGradient6218-8" x1="60.014744" y1="77.255188" x2="66.828262" y2="77.255188" gradientUnits="userSpaceOnUse" gradientTransform="matrix(0.4570379,-0.48333316,0.52297938,0.4223906,-1.6526523,48.659029)"/><radialGradient inkscape:collect="always" xlink:href="#linearGradient1404" id="radialGradient3398-6" gradientUnits="userSpaceOnUse" gradientTransform="matrix(0.34156567,0,0,0.21738297,-433.93044,-184.56318)" cx="1802.4834" cy="1611.1213" fx="1802.4834" fy="1611.1213" r="850.03741"/><linearGradient inkscape:collect="always" xlink:href="#linearGradient7273" id="linearGradient7275" x1="318.66766" y1="77.844376" x2="311.36893" y2="207.34546" gradientUnits="userSpaceOnUse" gradientTransform="translate(-108.63762,21.511791)"/><radialGradient inkscape:collect="always" xlink:href="#linearGradient8836" id="radialGradient8840" cx="248.91544" cy="218.01872" fx="248.91544" fy="218.01872" r="39.536022" gradientTransform="matrix(-1.3931455,1.6870897,-2.0895967,-1.7554143,1033.7207,157.98055)" gradientUnits="userSpaceOnUse"/><radialGradient inkscape:collect="always" xlink:href="#linearGradient8836" id="radialGradient8840-8" cx="248.80571" cy="215.95444" fx="248.80571" fy="215.95444" r="39.536022" gradientTransform="matrix(-1.5120642,1.6106077,-1.8213232,-1.5033557,888.71634,8.5949206)" gradientUnits="userSpaceOnUse"/><radialGradient inkscape:collect="always" xlink:href="#linearGradient8836" id="radialGradient8840-8-7" cx="248.80571" cy="215.95444" fx="248.80571" fy="215.95444" r="39.536022" gradientTransform="matrix(1.2603829,1.4764199,1.5181661,-1.3781036,-563.22821,136.51361)" gradientUnits="userSpaceOnUse"/></defs><g inkscape:label="Layer 1" inkscape:groupmode="layer" id="layer1" transform="translate(32.03241,12.911407)"><ellipse style="font-variation-settings:normal;fill:url(#radialGradient3398-6);fill-opacity:1;fill-rule:nonzero;stroke:#000000;stroke-width:5.58609;stroke-linecap:butt;stroke-linejoin:miter;stroke-miterlimit:10.43;stroke-dasharray:none;stroke-dashoffset:0;stroke-opacity:1;paint-order:stroke fill markers;stop-color:#000000" id="path3364-7" cx="160.08421" cy="179.20523" rx="187.20694" ry="187.20695"/><ellipse style="fill:#008000;stroke-width:0.312151;stroke-miterlimit:10.43;paint-order:stroke fill markers;stop-color:#000000" id="path1066" cx="141.19168" cy="218.76508" rx="44.076321" ry="39.190033"/><ellipse style="font-variation-settings:normal;opacity:1;fill:#008000;fill-opacity:1;fill-rule:nonzero;stroke:#000000;stroke-width:5;stroke-linecap:butt;stroke-linejoin:miter;stroke-miterlimit:10.43;stroke-dasharray:none;stroke-dashoffset:0;stroke-opacity:1;paint-order:stroke fill markers;stop-color:#000000;stop-opacity:1" id="path3364" cx="159.63838" cy="178.46393" rx="170.48178" ry="164.69801"/><path id="path3364-74" style="fill:url(#linearGradient7275);stroke:#000000;stroke-width:5;stroke-miterlimit:10.43;paint-order:stroke fill markers;stop-color:#000000" d="m 330.06176,178.45042 c 1e-5,90.9602 -49.89412,-41.88253 -130.54864,-36.48253 -11.9547,-13.6824 -56.5479,-8.21887 -80.1282,3.94723 -41.340779,21.32951 -71.48388,60.40046 -130.286731,32.5353 5e-6,-90.960193 76.327297,-164.698006 170.481791,-164.698003 94.15449,0 170.48177,73.737812 170.48178,164.698003 z" sodipodi:nodetypes="scscss"/><path id="path3364-5" style="font-variation-settings:normal;opacity:1;fill:#07719c;fill-opacity:1;stroke:#000000;stroke-width:5;stroke-linecap:butt;stroke-linejoin:miter;stroke-miterlimit:10.43;stroke-dasharray:none;stroke-dashoffset:0;stroke-opacity:1;paint-order:stroke fill markers;stop-color:#000000;stop-opacity:1" d="M 258.06698,40.009076 C 257.0352,22.865352 205.17365,12.504399 202.08042,17.505157 c -7.85833,12.704376 -26.97333,8.930061 -21.25706,110.478393 0.47562,8.44931 -14.16732,7.75004 -21.3269,9.53761 -5.21027,1.30087 -5.26616,13.10568 -3.03661,21.30484 16.77465,61.68879 -107.444113,15.75244 -74.900731,61.14946 57.820081,80.65729 21.437121,106.58636 26.154861,118.83508 44.27947,25.85538 98.00569,9.936 110.98354,0.58257 18.6377,-22.89467 -51.58688,-59.3162 -40.04367,-88.59271 11.34315,-28.76909 98.20997,-47.20262 59.477,-97.33405 -3.02015,-4.47916 -14.30464,-5.62033 -14.49145,-7.25646 -9.64276,-84.454547 -1.42116,-95.526226 34.42758,-106.200814 z" sodipodi:nodetypes="csssssccscsc"/><path id="rect7593" style="opacity:1;fill:#552200;stroke:#000000;stroke-width:5.31376;stroke-miterlimit:10.43;stroke-dasharray:none;paint-order:stroke fill markers;stop-color:#000000;stop-opacity:1" d="m 220.06698,222.17291 h 29.92924 c -5.35697,19.61344 -3.71292,36.21611 0,55.51696 -7.81584,-6.29549 -10.76636,1.58433 -29.19947,0 24.74151,-11.57374 5.00379,-35.40492 -0.72977,-55.51696 z" sodipodi:nodetypes="ccccc"/><path id="path7834" style="opacity:1;fill:url(#radialGradient8840);stroke:#000000;stroke-width:5.31376;stroke-miterlimit:10.43;paint-order:stroke fill markers;stop-color:#000000;stop-opacity:1" d="m 272.47521,193.98326 c 7.31884,15.2508 -6.61752,17.98166 -14.79108,24.9595 -9.18694,7.84295 -13.8113,18.76697 -25.45857,14.59634 -6.47974,-2.32024 -29.72965,-3.08188 -32.07015,-11.88138 -3.2375,-12.17201 8.13511,-22.81658 -11.70672,-25.71163 -8.38314,-1.22316 5.04544,-26.60628 12.80324,-27.76316 11.60873,-1.73114 27.57914,13.56833 27.44643,-11.79268 -0.0508,-9.70614 29.2513,0.84202 25.38289,8.85577 3.85416,26.43065 25.25288,-18.74006 18.39396,28.73724 z" sodipodi:nodetypes="csssssscc"/><path id="rect7593-9" style="fill:#552200;stroke:#000000;stroke-width:5.38598;stroke-miterlimit:10.43;stroke-dasharray:none;paint-order:stroke fill markers;stop-color:#000000" d="m 139.1474,116.01773 h -31.46296 c 5.63149,19.16794 3.90319,35.3935 0,54.25594 11.92916,1.52872 24.7248,7.84554 32.00542,-1.86505 -26.00939,-11.31085 -6.56983,-32.73567 -0.54246,-52.39089 z" sodipodi:nodetypes="ccccc"/><path id="path7834-3" style="fill:url(#radialGradient8840-8);stroke:#000000;stroke-width:5.38598;stroke-miterlimit:10.43;paint-order:stroke fill markers;stop-color:#000000" d="M 159.7089,86.027147 C 172.06065,119.23561 134.9771,130.01217 112.93725,119.8667 106.44866,116.87985 82.176224,113.51689 80.870993,104.69769 79.037983,92.312508 95.436079,75.935712 71.727,78.409974 c -8.849824,0.923554 8.457062,-25.25772 16.696962,-25.501623 12.330138,-0.364995 27.174268,16.297725 30.074708,-8.337913 1.11004,-9.428512 30.44547,4.132481 25.44549,11.473873 38.17328,8.889892 21.67439,15.133959 15.76474,29.982836 z" sodipodi:nodetypes="cssssscc"/><path id="rect7593-9-0" style="fill:#552200;stroke:#000000;stroke-width:4.70805;stroke-miterlimit:10.43;stroke-dasharray:none;paint-order:stroke fill markers;stop-color:#000000" d="M 87.933172,234.98646 H 61.707184 c 4.694134,17.57096 3.253509,32.44469 0,49.7356 9.943561,1.40136 20.609376,7.19189 26.678159,-1.70966 -21.680161,-10.36848 -5.47629,-30.0083 -0.452171,-48.02594 z" sodipodi:nodetypes="ccccc"/><path id="path7834-3-8" style="fill:url(#radialGradient8840-8-7);stroke:#000000;stroke-width:4.70805;stroke-miterlimit:10.43;paint-order:stroke fill markers;stop-color:#000000" d="m 83.423371,238.51475 c 5.408567,-2.738 25.640899,-5.82077 26.728869,-13.9052 1.5279,-11.3533 -12.140762,-26.36565 7.62198,-24.09754 7.37678,0.84661 -7.04939,-23.15337 -13.91776,-23.37695 -10.277813,-0.33459 -22.65115,14.93988 -25.068814,-7.64324 -0.925279,-8.64298 -25.377857,3.78818 -21.210113,10.51793 -17.872877,3.69413 -22.858391,14.96709 -20.501467,26.79526 1.195018,5.99718 23.570264,8.2515 8.524965,17.50426 -12.881282,7.9219 24.770777,20.11338 37.82234,14.20548 z" sodipodi:nodetypes="csssscssc"/></g></svg>