<?xml version="1.0" encoding="UTF-8" standalone="no"?>
<!-- Created with Inkscape (http://www.inkscape.org/) -->
<svg width="136mm" height="136mm" viewBox="0 0 136 136" version="1.1" id="svg5" xml:space="preserve" inkscape:version="1.2 (dc2aedaf03, 2022-05-15)" sodipodi:docname="arcalog.svg" xmlns:inkscape="http://www.inkscape.org/namespaces/inkscape" xmlns:sodipodi="http://sodipodi.sourceforge.net/DTD/sodipodi-0.dtd" xmlns:xlink="http://www.w3.org/1999/xlink" xmlns="http://www.w3.org/2000/svg" xmlns:svg="http://www.w3.org/2000/svg"><sodipodi:namedview id="namedview7" pagecolor="#ffffff" bordercolor="#000000" borderopacity="0.25" inkscape:showpageshadow="2" inkscape:pageopacity="0.0" inkscape:pagecheckerboard="0" inkscape:deskcolor="#d1d1d1" inkscape:document-units="mm" showgrid="false" inkscape:zoom="2.587745" inkscape:cx="149.55106" inkscape:cy="240.36371" inkscape:window-width="3840" inkscape:window-height="2066" inkscape:window-x="-11" inkscape:window-y="-11" inkscape:window-maximized="1" inkscape:current-layer="g325"/><defs id="defs2"><linearGradient inkscape:collect="always" id="linearGradient1404"><stop style="stop-color:#f1ff19;stop-opacity:1;" offset="0" id="stop1400"/><stop style="stop-color:#e33600;stop-opacity:1;" offset="1" id="stop1402"/></linearGradient><radialGradient inkscape:collect="always" xlink:href="#linearGradient1404" id="radialGradient1406" cx="872.76624" cy="2218.0591" fx="872.76624" fy="2218.0591" r="850.03741" gradientTransform="matrix(1,0,0,0.69712115,0,671.80322)" gradientUnits="userSpaceOnUse"/></defs><g inkscape:label="Layer 1" inkscape:groupmode="layer" id="layer1" transform="translate(-44.6709,-208.87439)"><path style="font-variation-settings:normal;opacity:1;fill:#9bdffa;fill-opacity:0.977833;stroke:#000000;stroke-width:0.0579654;stroke-linecap:butt;stroke-linejoin:miter;stroke-miterlimit:10.43;stroke-dasharray:none;stroke-dashoffset:0;stroke-opacity:1;paint-order:stroke fill markers;stop-color:#000000;stop-opacity:1" d="m 169.20214,311.83484 c -0.19562,-0.18707 -0.43252,-0.8416 -0.42196,-1.12271 0.0518,-0.37532 0.35079,-0.91224 0.53849,-1.23138 0.44801,-0.6905 1.48279,-1.76977 2.10007,-2.31357 0.22955,-0.22637 0.86551,0.92923 1.03074,1.04407 0.63628,0.64577 1.36737,1.5168 1.99837,2.16751 -0.0817,0.21066 -0.58371,0.98163 -0.72084,1.15378 -1.66683,1.11632 -3.13349,0.79205 -4.52487,0.3023 z" id="path18424" sodipodi:nodetypes="cccccccc"/><path style="font-variation-settings:normal;opacity:1;fill:#9bdffa;fill-opacity:0.977833;stroke:#000000;stroke-width:0.0579654;stroke-linecap:butt;stroke-linejoin:miter;stroke-miterlimit:10.43;stroke-dasharray:none;stroke-dashoffset:0;stroke-opacity:1;paint-order:stroke fill markers;stop-color:#000000;stop-opacity:1" d="m 176.44178,312.2497 c -0.80363,-0.76504 -0.73454,-0.68735 -1.45854,-1.44384 -0.14687,-0.0369 0.0268,-0.71778 -0.8739,-1.74554 -0.50493,-0.57614 -1.49312,-1.01543 -1.84109,-1.30726 -0.0844,-0.0707 -0.32261,-0.69932 -0.30855,-0.71201 0.0759,-0.0685 2.50936,-0.4738 2.90135,-0.58878 0.39562,-0.11605 0.48524,-0.46056 1.08295,-0.46209 0.94856,-0.002 1.46045,0.33028 1.73096,0.70987 0.32924,0.46201 1.09672,1.38175 1.25044,1.83754 0.32654,0.96816 0.218,2.75738 -0.3091,3.54285 -0.16501,0.24588 -0.96403,0.74411 -1.02309,0.74411 -0.018,0 -0.68531,-0.0996 -1.15143,-0.57485 z" id="path18422" sodipodi:nodetypes="ccsssscssssc"/><path style="font-variation-settings:normal;opacity:1;fill:#07719c;fill-opacity:0.977833;stroke:#000000;stroke-width:0.0819756;stroke-linecap:butt;stroke-linejoin:miter;stroke-miterlimit:10.43;stroke-dasharray:none;stroke-dashoffset:0;stroke-opacity:1;paint-order:stroke fill markers;stop-color:#000000;stop-opacity:1" d="m 168.74534,312.52427 c -1.16191,-0.43931 -2.15444,-1.26422 -3.14148,-1.96883 -2.65834,-2.24982 -5.49212,-4.88001 -8.57808,-6.56805 -1.01331,-0.57767 -2.23766,-1.58705 -3.30453,-2.05602 -0.0826,-1.03945 0.42837,-2.24427 0.91439,-3.10521 -0.13951,-1.05652 1.80066,-1.16114 2.45975,-1.56647 1.54972,-0.46622 3.457,-0.97748 5.03843,-1.32626 1.85013,1.15976 3.70962,2.91742 5.63053,3.96197 2.33877,1.45981 4.88244,2.94999 7.16772,4.49144 0.21737,0.19555 0.94194,0.82587 1.00035,0.97702 -1.4161,0.0933 -2.98323,0.72517 -4.24892,1.32035 -1.32615,0.77965 -2.86137,1.78342 -3.55402,3.14535 -0.41326,0.93217 1.76853,2.46126 2.69569,2.86749 0.1922,0.24112 -2.00793,-0.15989 -2.07983,-0.17278 z" id="path16624" sodipodi:nodetypes="cccccccccccccc"/><path style="font-variation-settings:normal;opacity:1;fill:#9bdffa;fill-opacity:0.977833;stroke:#000000;stroke-width:0.0579654;stroke-linecap:butt;stroke-linejoin:miter;stroke-miterlimit:10.43;stroke-dasharray:none;stroke-dashoffset:0;stroke-opacity:1;paint-order:stroke fill markers;stop-color:#000000;stop-opacity:1" d="m 176.42069,305.72478 c -1.06675,-0.86566 -1.42098,-1.58292 -2.60439,-2.28277 -1.74737,-1.14053 -3.68283,-2.151 -5.44939,-3.2614 -1.20171,-0.70866 -2.47135,-1.25395 -3.5846,-2.09991 -0.56855,-0.40497 -1.76009,-1.56648 -2.35093,-1.93657 0.46747,-0.19284 1.56454,-0.65436 2.0763,-0.76343 1.86778,-0.2941 4.00419,-0.22649 5.86296,0.1959 2.49102,0.72981 4.91364,3.01096 6.07841,5.31303 0.72694,1.42497 0.83739,3.305 0.84991,4.90788 -0.0127,0.1195 -0.73784,-0.18981 -0.76982,-0.16315 z" id="path16626" sodipodi:nodetypes="cccccccccsc"/><path style="font-variation-settings:normal;opacity:1;fill:#07719c;fill-opacity:0.977833;stroke:#000000;stroke-width:0.0819756;stroke-linecap:butt;stroke-linejoin:miter;stroke-miterlimit:10.43;stroke-dasharray:none;stroke-dashoffset:0;stroke-opacity:1;paint-order:stroke fill markers;stop-color:#000000;stop-opacity:1" d="m 103.60069,309.34811 c 0,2.21174 -14.521047,-1.88807 -20.804237,-5.79072 -6.565595,-3.63652 -13.620992,-9.0685 -21.168948,-10.41692 4.204355,-1.24289 11.379702,-3.64716 15.8122,-2.50993 2.854677,0.50392 2.961433,5.36852 5.790149,6.72509 5.161261,4.89735 11.129052,6.38605 17.977616,6.97205 7.39942,0.66479 14.91533,1.54154 22.07899,-0.86006 7.13786,-3.4803 13.1547,-8.32941 18.72471,-13.97174 5.21762,-1.00738 11.13032,-1.14985 16.24453,-2.62718 3.3398,2.81563 8.59115,5.80405 12.49222,7.84324 4.0588,2.12163 -5.4461,-0.45258 -6.87685,0.70205 -5.10727,1.24819 -10.22797,2.63842 -15.36175,3.79742 -13.39665,3.87589 -26.2571,11.1559 -40.56139,10.72939 -1.34676,-0.004 -4.34724,0.1319 -4.34724,-0.59266 z" id="path16622" sodipodi:nodetypes="sssssssssssscss"/><path style="font-variation-settings:normal;opacity:1;fill:#07719c;fill-opacity:0.977833;stroke:#000000;stroke-width:0.0819756;stroke-linecap:butt;stroke-linejoin:miter;stroke-miterlimit:10.43;stroke-dasharray:none;stroke-dashoffset:0;stroke-opacity:1;paint-order:stroke fill markers;stop-color:#000000;stop-opacity:1" d="m 61.884771,310.8215 c -3.151432,-0.37738 -5.718352,-0.77776 -8.748696,-1.67311 -1.026698,-0.32167 -3.807858,-1.52558 -4.843319,-1.81808 0.844047,0.007 2.976737,-0.0672 3.549892,-0.69422 0.666995,-0.62358 1.048626,-2.14976 1.876792,-2.5702 0.400683,0.30032 0.857895,1.45084 1.297367,1.72708 1.260431,0.88314 2.778517,1.27806 4.243274,1.67666 2.142593,0.44923 5.121247,-0.10455 7.291059,0.0476 0.604421,0.35577 -0.265203,1.67453 -0.520311,2.01578 -0.68392,0.59675 -1.748669,1.47019 -2.573749,1.86086 -0.309583,0.0785 -1.260417,-0.55331 -1.572309,-0.57231 z" id="path16620" sodipodi:nodetypes="sssscssscsss"/><path style="font-variation-settings:normal;opacity:1;fill:#9bdffa;fill-opacity:0.977833;stroke:#000000;stroke-width:0.0579654;stroke-linecap:butt;stroke-linejoin:miter;stroke-miterlimit:10.43;stroke-dasharray:none;stroke-dashoffset:0;stroke-opacity:1;paint-order:stroke fill markers;stop-color:#000000;stop-opacity:1" d="m 59.963524,306.85224 c -1.974732,-0.34406 -3.7754,-0.82904 -5.043407,-2.40178 -0.596035,-0.80825 -1.490475,-0.28784 -2.176182,0.19504 -0.967807,0.62766 -1.702034,1.52858 -2.656616,2.16835 -3.086232,0.60352 -3.959489,-4.0355 -3.355377,-6.00242 0.847709,-2.54898 3.538692,-4.67417 5.942365,-5.74561 3.127341,-1.3919 7.061222,-1.67992 10.426283,-1.1985 0.341258,0.10559 1.982638,0.54669 1.142789,0.86322 -2.300876,1.29498 -4.274377,3.3666 -4.936752,6.00679 -0.281586,1.39221 -0.545886,2.77521 -0.110185,4.16324 0.394942,0.91178 1.654506,1.66873 2.30136,2.37165 -0.206973,0.0559 -1.329983,-0.40519 -1.534278,-0.41999 z" id="path18426" sodipodi:nodetypes="sccccccccccss"/><path id="path1458" style="fill:#000000;stroke:#000000;stroke-width:0.5;stroke-dasharray:none;stroke-opacity:1;paint-order:stroke fill markers" d="m 152.53709,284.42178 c -0.96913,0.008 -1.97489,0.22527 -3.02256,0.71831 -5.30421,1.99564 -10.84959,3.03184 -16.42794,3.90829 -7.72592,1.11048 -14.94469,4.16123 -22.49268,5.97121 -4.70845,1.25098 -9.59674,0.48198 -14.086997,-1.19838 -8.715029,-2.44406 -17.829055,-3.31986 -26.84849,-3.2613 -2.759607,0.53236 -7.093678,0.81844 -8.97878,2.44016 -0.938826,-0.12803 -1.88219,-0.20498 -2.8236,-0.20412 -7.946191,-0.30365 -14.813912,9.68398 -10.455693,14.24409 3.413526,1.91882 7.387335,2.70581 10.858769,3.69435 1.516011,0.34602 3.002529,0.83289 4.539258,1.0759 0.948451,0.26568 1.625502,-0.58783 2.345076,-1.05523 1.047664,-0.84785 2.136239,-1.7969 2.579171,-3.10937 0.0815,-1.11739 -1.33981,-0.64152 -2.139404,-0.47026 -1.342432,0.14039 -2.587883,0.20048 -3.747058,0.15245 -0.65702,-0.54308 -1.211794,-1.20226 -1.833997,-1.78284 -0.626497,-0.74726 -0.465554,-1.7764 -0.436149,-2.6758 0.109522,-1.46969 0.474339,-2.9673 1.385962,-4.15634 0.574499,-0.78976 1.206482,-1.56198 2.044836,-2.08618 0.745876,-0.59954 2.301787,-1.50822 3.217892,-1.81746 0.0258,-0.0102 0.04541,-0.0211 0.06201,-0.032 27.108175,16.60121 31.303517,16.18784 49.082274,15.2461 13.38783,-2.01615 25.53208,-8.48758 38.64364,-11.60859 -0.70803,1.02986 -1.11892,2.52237 -0.49093,3.64164 1.13427,1.52124 3.2546,1.45438 4.70618,2.51457 0.50876,0.29093 1.2354,0.87324 1.86758,1.37718 1.83509,1.47898 3.89987,3.32686 5.60018,4.94802 0.77686,0.6549 1.13071,1.14377 2.03656,1.60403 1.31879,0.6391 3.75821,0.91775 4.94699,0.56379 0.26175,-0.17925 0.32125,-0.39069 0.26562,-0.57154 0.0621,-0.0208 0.12415,-0.0428 0.18551,-0.0672 0.70211,-0.32674 1.33192,-0.81595 1.82212,-1.41593 0.0541,0.059 0.10836,0.11799 0.16226,0.17725 0.61254,0.59065 1.16284,1.26329 1.90118,1.70584 0.26091,0.1827 0.53758,0.35404 0.84077,0.45268 0.0484,0.0308 0.0969,0.0617 0.14521,0.0925 0.0172,-0.0132 0.0341,-0.0264 0.0512,-0.0398 0.0249,0.005 0.0502,0.009 0.0755,0.0134 l -0.047,-0.0357 c 0.80287,-0.64106 1.45286,-1.54822 1.51929,-2.60036 0.12484,-0.93855 -0.0596,-1.91053 -0.5426,-2.72748 -0.36604,-0.7108 -0.7743,-1.45637 -1.42265,-1.93786 0.76132,-1.29192 0.66704,-2.7359 0.0961,-4.12637 0.002,7.5e-4 0.004,0.002 0.006,0.003 -2.15598,-6.23833 -9.24855,-7.90506 -14.16813,-11.27322 -3.30635,-2.42834 -6.82303,-6.32544 -11.02258,-6.29109 z m 0.75085,0.53124 c 3.40376,-0.0238 6.09862,2.83492 8.7266,4.89789 3.62303,3.10843 8.65206,4.14471 12.01994,7.55148 -0.8409,-0.65857 -1.68584,-1.16348 -2.40037,-1.43144 -6.40459,-3.24008 -13.12052,1.1312 -19.50992,2.19108 -12.68447,3.01094 -24.3832,9.48706 -37.38273,11.21999 -6.91449,0.62816 -14.01566,0.48903 -20.805966,-1.07797 -9.851372,-2.59254 -17.589151,-9.77119 -26.867094,-13.62139 -1.914134,-0.7289 -3.939239,-1.31081 -5.993432,-1.62678 4.677382,-0.6235 9.449659,-2.81476 14.275614,-1.88309 8.933169,0.4539 17.882698,1.62814 26.358078,4.58164 8.84033,1.8902 17.07103,-2.85545 25.46615,-4.75682 8.03777,-1.90661 16.46867,-2.4875 24.14478,-5.71128 0.68298,-0.22544 1.33803,-0.32891 1.96835,-0.33331 z m -93.13643,8.73487 c 1.759949,0.003 3.470506,0.24048 4.97489,0.68057 l -0.293522,0.0951 c -0.977404,0.37049 -1.857236,0.95043 -2.655652,1.61695 -0.699716,0.47526 -1.314672,1.06605 -1.795756,1.76269 -0.719349,0.88312 -1.252987,1.91999 -1.465027,3.04426 -0.237086,1.09414 -0.328471,2.22931 -0.213424,3.34398 0.05639,0.60561 0.481552,1.05867 0.905372,1.45107 0.673693,0.57333 1.354897,1.14587 2.089278,1.63866 -3.044869,-0.15089 -5.470834,-1.09274 -7.35614,-3.50624 -0.896953,-0.43429 -2.051615,0.60194 -2.645834,1.11982 -0.716045,0.80308 -1.539429,1.93233 -2.760555,1.72496 -0.782162,-0.10637 -1.472528,-0.79573 -1.8557,-1.42988 -0.695162,-1.08563 -0.377751,-2.4384 0.03617,-3.56309 1.368185,-5.64057 7.440541,-7.98803 13.035897,-7.97884 z m 107.95465,1.71927 c 1.44383,0.0266 2.72368,0.28069 3.70158,0.86868 3.79931,1.79433 5.82058,6.14626 5.6379,9.71155 -0.0751,-0.0468 -0.15219,-0.0912 -0.23358,-0.13074 -0.12893,-0.078 -0.26274,-0.14152 -0.39997,-0.1943 -1.06153,-0.89655 -2.18492,-1.7213 -3.40134,-2.39727 -0.92369,-0.62682 -1.84961,-1.2503 -2.82154,-1.80144 -1.42556,-0.9463 -2.87045,-1.86698 -4.38267,-2.66909 -0.0238,-0.0153 -0.0361,-0.0238 -0.0656,-0.0424 -0.78192,-0.52676 -1.50699,-1.13172 -2.30994,-1.62833 -0.2291,-0.15761 -1.11555,-0.68697 -1.65778,-0.95033 1.82049,-0.41951 3.65156,-0.72399 5.30459,-0.76429 0.21255,-0.005 0.42212,-0.006 0.62838,-0.002 z m -6.16396,0.81907 c 0.76501,0.49671 2.27919,1.4178 2.98793,1.96991 0.76676,0.54415 1.59671,0.98804 2.42724,1.42523 1.23193,0.75056 2.41014,1.58666 3.66541,2.2996 0.84132,0.55713 1.66476,1.14104 2.54558,1.6366 0.92456,0.54654 1.7335,1.27005 2.57762,1.91926 0.019,0.008 0.0379,0.0156 0.0568,0.0233 -0.36994,-0.0613 -0.75165,-0.0675 -1.12603,-0.0532 -0.88054,-0.0409 -1.67713,0.40135 -2.48356,0.68678 -0.95508,0.37559 -1.92504,0.81323 -2.61535,1.60197 -0.60658,0.63614 -1.16854,1.33543 -1.55443,2.12855 -0.22711,0.51305 -0.32656,1.19044 0.12661,1.61799 0.81297,0.67257 1.86535,1.13302 2.92902,1.19579 -0.96598,0.39438 -3.45683,-0.088 -4.3403,-0.99374 -0.99436,-1.01937 -2.09939,-1.73146 -2.92075,-2.51354 -5.47929,-5.21715 -7.09899,-5.69242 -10.01386,-7.02851 -0.65586,-0.37671 -0.0164,-2.10066 0.83354,-3.21634 0.0415,-0.25777 -0.15274,-0.49319 -0.37259,-0.66611 0.34667,-0.0793 0.69369,-0.15774 1.0418,-0.23203 1.82124,-0.58936 4.01444,-1.27756 6.23528,-1.80144 z m -108.021318,8.07083 c 3.130067,3.92969 6.701119,3.30565 11.008114,3.54242 0.573296,0.0146 1.145662,-0.0406 1.707389,-0.14728 -0.792194,1.51854 -2.269942,2.49234 -3.617867,3.4711 -3.315871,-0.0236 -6.898756,-1.40497 -9.820072,-2.14508 -2.367673,-0.99629 -5.254359,-0.99424 -6.435783,-3.36104 0.844378,0.77719 1.716251,1.34326 2.668571,1.5689 1.334869,0.3389 2.252199,-0.8078 3.037541,-1.67897 0.2509,-0.47334 1.159058,-0.93161 1.452107,-1.25005 z m 122.004958,1.72496 c 0.35352,-0.003 0.70823,0.0233 1.05678,0.0651 0.0427,0.002 0.10294,0.0179 0.16743,0.0377 0.53249,0.53003 0.85038,1.25977 1.20096,1.9172 0.47252,0.93771 0.50069,2.06203 0.20516,3.05718 -0.22937,0.6845 -0.70825,1.25457 -1.26556,1.70273 -0.46869,-0.38598 -0.87102,-0.85581 -1.30948,-1.27485 -0.26846,-0.27828 -0.52743,-0.56577 -0.78806,-0.85163 0.003,-0.004 0.005,-0.007 0.008,-0.0109 -0.009,-0.002 -0.016,-0.005 -0.0243,-0.007 -0.17379,-0.19049 -0.3479,-0.38039 -0.5271,-0.56585 -0.53045,-0.55489 -0.99155,-1.17271 -1.53427,-1.71566 -0.337,-0.31157 -0.67242,-0.63424 -1.0294,-0.91829 -0.0627,-0.0256 -0.12537,-0.0513 -0.1881,-0.077 0.21167,-0.12958 0.43337,-0.24327 0.66611,-0.33693 0.83269,-0.35361 1.66744,-0.72068 2.54248,-0.9555 0.27016,-0.0442 0.54463,-0.0639 0.81959,-0.0661 z m -4.24367,1.49861 c 0.46488,0.41682 0.91759,0.84673 1.30586,1.33791 0.41264,0.48454 0.84451,0.95264 1.27744,1.41903 -0.19203,0.28943 -0.46474,0.5298 -0.70435,0.77618 -0.7079,0.62934 -1.61068,1.1012 -2.58227,1.04541 -0.45621,-0.002 -0.91221,-0.0788 -1.34617,-0.22169 -0.26519,-0.30156 -0.59477,-0.76161 -0.47129,-1.15755 0.2073,-0.76426 0.74271,-1.38197 1.22215,-1.99161 0.38007,-0.45474 0.81073,-0.8732 1.29863,-1.20768 z"/><g id="g325" transform="matrix(0.06063619,0,0,0.05665097,57.909063,135.19341)">
	<path id="path1374" style="opacity:1;fill:url(#radialGradient1406);fill-opacity:1;stroke:#000000;stroke-width:34.12403416;stroke-miterlimit:10.43;paint-order:stroke fill markers;stop-color:#000000;stop-opacity:1;stroke-dasharray:none" d="m 1709.9645,2505.5349 c 0,40.9584 -20.8123,154.2556 -76.8857,168.0003 -149.7835,36.7148 -340.0695,30.3051 -380.7527,114.136 -191.1224,-216.8987 -162.7716,-29.6532 -395.57876,-50.217 -585.57928,88.5833 -453.78723,-58.663 -767.66542,26.9844 -32.319393,-93.1862 -53.51399,-157.9925 -53.513988,-258.9037 5e-6,-229.9999 88.204558,-450.5796 245.209698,-613.214 157.00514,-162.6345 369.94981,-254.0016 591.98861,-254.0016 222.03876,0 434.98346,91.3671 591.98856,254.0016 157.0051,162.6345 245.2097,383.2141 245.2097,613.214 z" sodipodi:nodetypes="sscccsssss"/><path id="path1474-9" style="fill:#000000;stroke:#000000;stroke-width:0;stroke-opacity:1;paint-order:stroke fill markers" d="m 1389.1825,2389.9384 c 0,110.3815 -53.3207,216.242 -148.232,294.2934 -94.9113,78.0516 -223.6388,121.9005 -357.86374,121.9005 -134.22494,0 -262.95237,-43.8489 -357.86373,-121.9003 -286.5321,-171.7817 -135.90974,-637.674 68.76774,-655.2081 187.77488,-16.086 282.3391,-79.6822 282.3391,-79.6822 125.34643,-51.3835 269.70933,68.2517 364.62063,146.3032 94.9113,78.0515 148.232,183.912 148.232,294.2935 z" sodipodi:nodetypes="ssscssss"/><path id="path1474" style="fill:#996639;stroke:#000000;stroke-width:0;stroke-opacity:1;paint-order:stroke fill markers" d="m 1380.3622,2398.1482 c 0,107.9396 -52.1411,211.4582 -144.9528,287.783 -92.8116,76.3249 -218.6913,119.2037 -349.94688,119.2037 -131.25557,0 -257.13525,-42.8788 -349.94695,-119.2036 -280.19335,-167.9814 -132.9031,-623.5671 67.24644,-640.7133 183.62086,-15.7302 276.0931,-77.9195 276.0931,-77.9195 122.57349,-50.2467 263.74269,66.7418 356.55429,143.0667 92.8117,76.3248 144.9528,179.8434 144.9528,287.783 z" sodipodi:nodetypes="ssscssss"/><path style="fill:#bd8548;fill-opacity:1;stroke:none;stroke-width:0;stroke-opacity:1;paint-order:stroke fill markers" d="m 799.23288,2209.8028 c 105.61111,123.7212 -73.3122,35.8018 -38.5568,78.1308 -22.6073,-30.5596 -29.03438,-49.416 -311.87162,-132.5879 5.44866,-9.3434 16.97821,-31.1271 32.27391,-41.6255 184.1748,16.2012 177.59327,103.33 318.15451,96.0826 z" id="path1702-4-6-30-5" sodipodi:nodetypes="ccccc"/>
	
	
	
	
	
	
	
	
	
	
	
	
	
	
	
	
	
	
	
	
	
	
	
	
	
	
	
	
	
	
	
	
	
	
	
	
	
	
	
<ellipse style="font-variation-settings:normal;opacity:1;fill:#613504;fill-opacity:1;stroke:#000000;stroke-width:25.7966;stroke-linecap:butt;stroke-linejoin:miter;stroke-miterlimit:10.43;stroke-dasharray:none;stroke-dashoffset:0;stroke-opacity:1;paint-order:stroke fill markers;stop-color:#000000;stop-opacity:1" id="path1528" cx="305.0415" cy="2598.5798" rx="339.68631" ry="287.59348" transform="matrix(0.92678409,-0.37559454,0.24706102,0.96899992,0,0)"/><path style="fill:#000000;fill-opacity:1;stroke:#f8b418;stroke-width:0;paint-order:stroke fill markers" d="m 249.61678,2395.1735 c -22.09721,252.6995 63.78975,505.5402 319.07072,578.9851 0,0 389.58685,85.7716 548.0421,-16.2612 207.6034,-133.6803 469.3849,-361.7199 451.8299,-698.3471 -9.1748,-175.9305 -260.5863,-142.0117 -551.5541,-72.1072 -235.92392,56.6805 -319.32032,467.5703 -767.38862,207.7304 z" id="path649-7" sodipodi:nodetypes="ccsssc"/><path style="fill:#bd8548;fill-opacity:1;stroke:#f8b418;stroke-width:0;paint-order:stroke fill markers" d="m 255.66689,2407.1723 c -21.35853,244.2522 68.57214,483.0899 315.31942,554.0795 0,0 366.19132,85.9883 519.34969,-12.6337 200.6635,-129.2116 453.694,-349.6281 436.7258,-675.0023 -8.8681,-170.0494 -211.1294,-143.3702 -492.3705,-75.8025 -228.03741,54.7857 -345.9344,460.5128 -779.02441,209.359 z" id="path649" sodipodi:nodetypes="ccsssc"/><path style="fill:#996639;fill-opacity:1;stroke:none;stroke-width:0;stroke-opacity:1;paint-order:stroke fill markers" d="m 1510.1516,2208.4761 c 7.2151,13.0114 23.7617,49.1715 18.0446,97.3645 -417.4502,205.9503 -555.30864,478.544 -1235.46257,400.0263 -3.56973,-13.5911 -18.29974,-45.1371 -24.92465,-84.0613 528.18987,216.3574 1173.52962,-381.385 1242.34262,-413.3295 z" id="path1702-4-6" sodipodi:nodetypes="ccccc"/><path style="fill:#613504;fill-opacity:1;stroke:none;stroke-width:0;stroke-opacity:1;paint-order:stroke fill markers" d="m 1517.7063,2223.5907 c 6.3457,12.6392 16.9144,49.9267 10.3968,97.777 -417.4503,205.9503 -549.83473,478.2056 -1229.98866,399.6879 -3.56973,-13.5911 -20.82905,-44.1219 -27.45396,-83.0461 528.18987,216.3574 1178.23282,-382.4743 1247.04582,-414.4188 z" id="path1702-4-6-7" sodipodi:nodetypes="ccccc"/><path style="fill:#bd8548;fill-opacity:1;stroke:none;stroke-width:0;stroke-opacity:1;paint-order:stroke fill markers" d="m 1102.9098,2011.703 c 3.596,0.091 83.5044,46.6307 118.2598,88.9597 -22.6073,-30.5596 -135.3249,-13.7482 -418.16215,-96.9201 9.91987,-9.9815 42.82501,-16.26 58.12071,-26.7584 127.53938,-31.3372 101.22039,41.9662 241.78164,34.7188 z" id="path1702-4-6-30" sodipodi:nodetypes="ccccc"/><path style="fill:#996639;fill-opacity:1;stroke:none;stroke-width:0;stroke-opacity:1;paint-order:stroke fill markers" d="m 1511.9476,2437.6187 c -8.8397,47.6936 -26.9334,76.4677 -42.5532,118.5711 -384.1868,289.0326 -565.14781,410.3401 -1050.80868,325.4977 -5.88825,-5.695 -51.13388,-39.7614 -73.56692,-79.1368 507.855,210.5419 1025.4677,-243.6456 1166.9288,-364.932 z" id="path1702-4-6-3" sodipodi:nodetypes="ccccc"/><path style="fill:#613504;fill-opacity:1;stroke:none;stroke-width:0;stroke-opacity:1;paint-order:stroke fill markers" d="m 1509.4583,2450.569 c -8.7925,47.7644 -28.2572,79.4021 -45.0825,119.6991 -384.1868,289.0326 -547.3648,407.2672 -1033.02567,322.4248 -5.88825,-5.695 -57.0955,-39.6019 -79.52854,-78.9773 507.855,210.5419 1016.17561,-241.8602 1157.63671,-363.1466 z" id="path1702-4-6-3-5" sodipodi:nodetypes="ccccc"/><path fill="#613504" stroke="#613504" stroke-width="0.0938" stroke-miterlimit="10.43" d="m 1156.4764,2219.9164 c 9.1699,-2.37 19.33,-0.38 26.8999,5.32 13.9401,9.81 18.76,29.83 12.03,45.27 -4.0599,9.96 -12.78,18.16 -23.33,20.71 -9.75,2.58 -20.54,-0.06 -28.28,-6.43 -13.17,-10.62 -17.14,-30.49 -9.85,-45.6 4.1602,-9.33 12.6001,-16.73 22.5301,-19.27 z" id="path265-3" style="stroke:#000000;stroke-width:6.91012;stroke-dasharray:none;stroke-opacity:1"/><path fill="#613504" stroke="#613504" stroke-width="0.0938" stroke-miterlimit="10.43" d="m 1061.4298,2247.2634 c 10.04,-2.66 21.05,0.41 28.8501,7.1 13.5599,11.5 16.6899,32.93 7.5399,48.07 -5.65,9.82 -16.35,17.04 -27.87,17.03 -9.4299,0.51 -18.77,-3.75 -25.0499,-10.71 -12.0601,-12.72 -13.13,-33.99 -2.87,-48.09 4.5899,-6.58 11.6099,-11.45 19.3999,-13.4 z" id="path269-8" style="stroke:#000000;stroke-width:6.91012;stroke-dasharray:none;stroke-opacity:1"/><path fill="#613504" stroke="#613504" stroke-width="0.0938" stroke-miterlimit="10.43" d="m 973.62499,2297.0441 c 9.78,-1.55 20.09,1.8 27.20001,8.65 12.7,11.62 15.25,32.12 6.65,46.86 -4.91,8.54 -13.45001,15.16 -23.25001,16.85 -9.68,1.88 -20,-1.28 -27.34,-7.75 -12.26,-10.82 -15.88,-29.84 -8.9301,-44.55 4.6501,-10.29 14.4001,-18.37 25.6701,-20.06 z" id="path275-6" style="font-variation-settings:normal;opacity:1;vector-effect:none;fill:#613504;fill-opacity:1;stroke:#000000;stroke-width:6.91012;stroke-linecap:butt;stroke-linejoin:miter;stroke-miterlimit:10.43;stroke-dasharray:none;stroke-dashoffset:0;stroke-opacity:1;-inkscape-stroke:none;stop-color:#000000;stop-opacity:1"/><path fill="#613504" stroke="#613504" stroke-width="0.0938" stroke-miterlimit="10.43" d="m 817.54779,2405.7549 c 7.92,-2.62 16.98,-0.65 23.45,4.52 9.47,7.64 13.17,21.36 9.15,32.79 -2.54,7.85 -8.65,14.48 -16.32,17.53 -8.3,2.97 -18.16,1.52 -24.92,-4.26 -10.53,-8.39 -13.63,-24.25 -7.64,-36.2 3.17,-6.7 9.13,-12.21 16.28,-14.38 z" id="path283-0" style="font-variation-settings:normal;opacity:1;vector-effect:none;fill:#613504;fill-opacity:1;stroke:#000000;stroke-width:6.91012;stroke-linecap:butt;stroke-linejoin:miter;stroke-miterlimit:10.43;stroke-dasharray:none;stroke-dashoffset:0;stroke-opacity:1;-inkscape-stroke:none;stop-color:#000000;stop-opacity:1"/><path fill="#613504" stroke="#613504" stroke-width="0.0938" stroke-miterlimit="10.43" d="m 748.18395,2460.5949 c 7.02,-2.08 15.01004,-1.12 21.07004,3.11 11.8,7.42 16.15,23.91 10.51,36.49 -3.67,9.29 -12.86,16.33 -22.92004,16.83 -7.89,0.56 -15.71,-3.1 -20.88,-8.96 -8.27,-9.47 -9.64,-24.14 -3.2,-34.95 3.39,-5.87 8.93,-10.48 15.42,-12.52 z" id="path297-9" style="font-variation-settings:normal;opacity:1;vector-effect:none;fill:#613504;fill-opacity:1;stroke:#000000;stroke-width:6.91012;stroke-linecap:butt;stroke-linejoin:miter;stroke-miterlimit:10.43;stroke-dasharray:none;stroke-dashoffset:0;stroke-opacity:1;-inkscape-stroke:none;stop-color:#000000;stop-opacity:1"/><path fill="#613504" stroke="#613504" stroke-width="0.0938" stroke-miterlimit="10.43" d="m 675.65775,2498.2252 c 5.26,-0.96 10.87,-0.33 15.68,2.08 8.9,4.2 14.79,13.55 15.73,23.24 1.54,13.22 -6.85,27.38 -19.99,30.91 -10.19,2.98 -21.65,-1.54 -27.65,-10.15 -8.04,-10.74 -7.48,-26.97 1.28,-37.13 3.83,-4.48 9.11,-7.89 14.95,-8.95 z" id="path301-9" style="font-variation-settings:normal;opacity:1;vector-effect:none;fill:#613504;fill-opacity:1;stroke:#000000;stroke-width:6.91012;stroke-linecap:butt;stroke-linejoin:miter;stroke-miterlimit:10.43;stroke-dasharray:none;stroke-dashoffset:0;stroke-opacity:1;-inkscape-stroke:none;stop-color:#000000;stop-opacity:1"/><path fill="#613504" stroke="#613504" stroke-width="0.0938" stroke-miterlimit="10.43" d="m 346.51875,2513.5485 c 7.53,-2.75 16.44,-0.45 21.87,5.4 7.57,7.61 8.93,20.34 3.41,29.5099 -4.48,8.2 -14.6,12.84 -23.71,10.3701 -12.07,-3.08 -19.15,-17.08 -15.92,-28.84 1.69,-7.41 7.14,-13.89 14.35,-16.44 z" id="path309-6" style="font-variation-settings:normal;opacity:1;vector-effect:none;fill:#613504;fill-opacity:1;stroke:#000000;stroke-width:6.91012;stroke-linecap:butt;stroke-linejoin:miter;stroke-miterlimit:10.43;stroke-dasharray:none;stroke-dashoffset:0;stroke-opacity:1;-inkscape-stroke:none;stop-color:#000000;stop-opacity:1"/><path fill="#613504" stroke="#613504" stroke-width="0.0938" stroke-miterlimit="10.43" d="m 514.59375,2536.9811 c 6.41,-2.2 13.89,-1.1299 19.25,3.07 6.93,5.07 10.5,14.07 9.32,22.53 -1.05,9.75 -8.8,18.86 -18.75,20.13 -7.77,1.29 -15.88,-2.63 -20.29,-9.02 -4.52,-6.35 -5.8,-14.9 -3.2,-22.26 2.04,-6.59 7.27,-11.96 13.67,-14.45 z" id="path311-3" style="font-variation-settings:normal;opacity:1;vector-effect:none;fill:#613504;fill-opacity:1;stroke:#000000;stroke-width:6.91012;stroke-linecap:butt;stroke-linejoin:miter;stroke-miterlimit:10.43;stroke-dasharray:none;stroke-dashoffset:0;stroke-opacity:1;-inkscape-stroke:none;stop-color:#000000;stop-opacity:1"/><path fill="#613504" stroke="#613504" stroke-width="0.0938" stroke-miterlimit="10.43" d="m 428.19075,2534.4619 c 6.39,-1.65 13.39,0.23 18.38,4.48 10.72,8.86 11.08,27.29 0.53,36.43 -5.29,4.89 -13.15,6.94 -20.06,4.68 -9.6,-2.89 -16.22,-12.78 -15.83,-22.71 -0.41,-10.29 6.83,-20.53 16.98,-22.88 z" id="path313-3" style="font-variation-settings:normal;opacity:1;vector-effect:none;fill:#613504;fill-opacity:1;stroke:#000000;stroke-width:6.91012;stroke-linecap:butt;stroke-linejoin:miter;stroke-miterlimit:10.43;stroke-dasharray:none;stroke-dashoffset:0;stroke-opacity:1;-inkscape-stroke:none;stop-color:#000000;stop-opacity:1"/><path style="fill:#996639;fill-opacity:1;stroke:none;stroke-width:0;stroke-opacity:1;paint-order:stroke fill markers" d="m 1309.1203,2135.7026 c 14.0779,-7.1632 33.9041,-16.4597 59.0171,-1e-4 -50.3985,381.8045 -105.8479,668.5964 -399.62941,853.6795 -17.67718,16.1227 -65.7004,19.8996 -87.06142,18.286 377.52943,-257.9251 398.90973,-567.3778 427.67373,-871.9654 z" id="path1702-4" sodipodi:nodetypes="ccccc"/><path style="fill:#613504;fill-opacity:1;stroke:none;stroke-width:0;stroke-opacity:1;paint-order:stroke fill markers" d="m 1328.8908,2128.5921 c 14.0779,-7.1632 29.2371,-8.5428 56.1386,2.4929 -76.756,295.4252 -29.5515,611.5727 -401.86505,863.4652 -18.44429,13.3689 -56.99117,13.6764 -94.06634,13.0217 311.26459,-182.1181 420.43949,-499.8847 439.79279,-878.9798 z" id="path1702" sodipodi:nodetypes="ccccc"/><path style="fill:#996639;fill-opacity:1;stroke:none;stroke-width:0;stroke-opacity:1;paint-order:stroke fill markers" d="M 269.15649,2618.3362 1526.2187,2328.6627" id="path1858"/></g></g></svg>