<?xml version="1.0" encoding="UTF-8" standalone="no"?>
<!-- Created with Inkscape (http://www.inkscape.org/) -->
<svg width="1315" height="1315" viewBox="0 0 347.92706 347.92708" version="1.1" id="svg5" sodipodi:docname="arcalot.svg" inkscape:version="1.2 (dc2aedaf03, 2022-05-15)" inkscape:export-filename="arcalot.png" inkscape:export-xdpi="18.688972" inkscape:export-ydpi="18.688972" xmlns:inkscape="http://www.inkscape.org/namespaces/inkscape" xmlns:sodipodi="http://sodipodi.sourceforge.net/DTD/sodipodi-0.dtd" xmlns:xlink="http://www.w3.org/1999/xlink" xmlns="http://www.w3.org/2000/svg" xmlns:svg="http://www.w3.org/2000/svg">
  <sodipodi:namedview id="namedview7" pagecolor="#ffffff" bordercolor="#000000" borderopacity="0.25" inkscape:showpageshadow="2" inkscape:pageopacity="0.0" inkscape:pagecheckerboard="0" inkscape:deskcolor="#d1d1d1" inkscape:document-units="mm" showgrid="false" inkscape:zoom="1.3266287" inkscape:cx="461.31973" inkscape:cy="969.37448" inkscape:window-width="3840" inkscape:window-height="2066" inkscape:window-x="-11" inkscape:window-y="-11" inkscape:window-maximized="1" inkscape:current-layer="layer1"/>
  <defs id="defs2">
    <linearGradient inkscape:collect="always" id="linearGradient3030">
      <stop style="stop-color:#ececec;stop-opacity:1;" offset="0" id="stop3026"/>
      <stop style="stop-color:#ececec;stop-opacity:0;" offset="1" id="stop3028"/>
    </linearGradient>
    <linearGradient inkscape:collect="always" id="linearGradient1751">
      <stop style="stop-color:#073c67;stop-opacity:1;" offset="0" id="stop1747"/>
      <stop style="stop-color:#141414;stop-opacity:1;" offset="0.55162078" id="stop1749"/>
    </linearGradient>
    <linearGradient inkscape:collect="always" id="linearGradient1404">
      <stop style="stop-color:#f1ff19;stop-opacity:1;" offset="0" id="stop1400"/>
      <stop style="stop-color:#e33600;stop-opacity:1;" offset="1" id="stop1402"/>
    </linearGradient>
    <linearGradient inkscape:collect="always" xlink:href="#linearGradient1751" id="linearGradient1753" x1="237.50345" y1="132.17288" x2="134.7986" y2="257.88223" gradientUnits="userSpaceOnUse" gradientTransform="matrix(0.95062253,0,0,0.97113219,-18.594547,39.328432)"/>
    <radialGradient inkscape:collect="always" xlink:href="#linearGradient3030" id="radialGradient3032" cx="184.24551" cy="187.32953" fx="184.24551" fy="187.32953" r="81.509247" gradientTransform="matrix(1.0415859,0.00733089,-0.00701808,0.98987649,22.592414,37.716237)" gradientUnits="userSpaceOnUse"/>
    <radialGradient inkscape:collect="always" xlink:href="#linearGradient1404" id="radialGradient1406-8" cx="872.76624" cy="2218.0591" fx="872.76624" fy="2218.0591" r="850.03741" gradientTransform="matrix(0.15228627,0,0,0.09159318,-1.0802267,-107.5004)" gradientUnits="userSpaceOnUse"/>
    <radialGradient inkscape:collect="always" xlink:href="#linearGradient1404" id="radialGradient3398" gradientUnits="userSpaceOnUse" gradientTransform="matrix(0.31083275,0,0,0.19710166,-369.30841,-152.87068)" cx="1802.4834" cy="1611.1213" fx="1802.4834" fy="1611.1213" r="850.03741"/>
  </defs>
  <g inkscape:label="Layer 1" inkscape:groupmode="layer" id="layer1" transform="translate(2.6983163,-3.6226828)">
    <ellipse style="fill:#008000;stroke-width:0.312311;stroke-miterlimit:10.43;paint-order:stroke fill markers;stop-color:#000000" id="path1066" cx="141.19514" cy="217.07605" rx="44.179665" ry="39.138565"/>
    <ellipse style="font-variation-settings:normal;opacity:1;fill:url(#radialGradient3398);fill-opacity:1;fill-rule:nonzero;stroke:#000000;stroke-width:5.0742;stroke-linecap:butt;stroke-linejoin:miter;stroke-miterlimit:10.43;stroke-dasharray:none;stroke-dashoffset:0;stroke-opacity:1;paint-order:stroke fill markers;stop-color:#000000;stop-opacity:1" id="path3364" cy="176.95908" cx="171.25888" rx="169.96291" ry="169.74098"/>
    <path id="path3364-5" style="fill:#008000;stroke:#000000;stroke-width:5.0742;stroke-miterlimit:10.43;stroke-dasharray:none;paint-order:stroke fill markers;stop-color:#000000" d="m 340.92472,178.3988 c 0,93.74536 -76.274,168.7451 -170.36272,168.7451 -94.088745,0 -169.1300467,-76.19769 -169.1300467,-169.94304 20.2898717,3.92671 33.1862097,26.5381 49.5649057,31.9295 10.666179,3.28916 32.428678,5.00426 33.397151,0.28622 1.097338,-5.34581 64.28789,-132.715419 21.85908,-22.38881 -2.61934,6.81102 40.77937,-17.75289 47.43876,-14.99664 17.1965,7.11741 7.39945,36.10932 25.83809,36.10932 5.69798,32.08286 159.52889,-40.47356 161.39478,-29.74165 z" sodipodi:nodetypes="csccssscc"/>
    <path id="rect409" style="fill:url(#linearGradient1753);fill-opacity:1;fill-rule:nonzero;stroke:#000000;stroke-width:3.60185;stroke-miterlimit:10.43;stroke-dasharray:none;stroke-opacity:1;paint-order:stroke fill markers;stop-color:#000000" d="m 82.397592,76.997311 10.440482,-0.03938 0.402061,-9.328716 12.378555,0.152813 0.47147,8.572164 11.49177,0.281555 -0.95779,-11.733231 c 0,0 -15.17503,-1.295604 -11.9505,-3.976621 l 21.32018,-17.726522 21.6526,17.258552 c 3.74044,2.981367 -13.45152,5.037032 -13.45152,5.037032 l -0.48079,11.145341 10.80801,-0.04888 -0.15193,-8.941926 10.92483,-0.441001 0.86116,9.42683 10.17808,-0.808094 c 0,0 4.65505,14.200886 1.13564,20.10579 -2.49632,4.188343 -13.60408,7.212513 -13.60408,7.212513 l -0.32067,20.64805 12.25845,-0.0333 1.94748,-7.28857 10.34631,0.35926 1.56761,7.00908 8.3003,1.50406 c 0,0 1.23711,-8.36166 -0.53804,-11.92655 -1.25887,-2.52804 -7.60628,-2.80931 -6.5285,-5.4191 l 16.38661,-39.679419 15.57129,40.348189 c 1.2369,3.20504 -7.88172,2.62527 -7.88612,5.99655 l -0.0347,26.56781 11.56481,2.90464 -1.03184,10.99992 7.38879,1.27961 1.18605,-11.40665 14.52823,1.09583 -7.21818,38.25729 -13.37651,1.58364 -9.7399,53.629 -49.04522,9.70591 c 12.30692,-20.14752 -4.5452,-66.6295 -27.38424,-65.84487 -34.234553,1.17612 -34.46401,52.56738 -25.47048,65.62919 l -46.902542,-11.21574 -8.527431,-52.58385 -17.539924,-3.09172 -8.895776,-37.21681 13.917555,0.25027 2.750395,11.75868 7.069649,-0.33083 -1.706553,-12.12395 9.614942,-0.48078 -2.766628,-32.27441 c 0,0 -14.504473,-4.20377 -11.312623,-9.68705 L 62.119305,67.572111 80.236777,105.82377 c 1.778179,3.75431 -11.462069,4.96799 -11.462069,4.96799 l 0.754638,15.35704 8.020766,-0.34193 1.350219,-7.14427 9.43909,-0.36028 1.267184,6.69847 9.484261,0.2497 -1.254975,-20.95631 C 97.6859,101.7895 76.625233,102.62892 82.397592,76.997311 Z" sodipodi:nodetypes="cccccccscscccccccacccccccascssccccccccccscccccccccccscscccccccsc"/>
    <path id="rect3001" style="opacity:1;fill:#808080;stroke:#000000;stroke-width:3.00154;stroke-miterlimit:10.43;stroke-dasharray:none;stroke-opacity:1;paint-order:stroke fill markers;stop-color:#000000;stop-opacity:1" d="M 276.38491,186.72377 C 265.38847,158.98456 219.8984,117.16764 219.8984,117.16764 l -27.5716,72.78411 -86.12068,11.55436 c 0,0 33.23218,58.33836 61.17678,74.14326 34.20374,19.34498 116.71944,17.61432 116.71944,17.61432 0,0 5.41053,-73.42382 -7.71743,-106.53992 z" sodipodi:nodetypes="acccaca"/>
    <path id="rect3001-4" style="fill:url(#radialGradient3032);fill-opacity:1;stroke:#000000;stroke-width:3.00154;stroke-miterlimit:10.43;stroke-dasharray:none;stroke-opacity:1;paint-order:stroke fill markers;stop-color:#000000" d="m 220.39766,130.88904 -23.15352,64.42215 -78.14911,10.8794 c 0,0 10.93208,19.22964 25.09645,37.48639 2.91926,3.76269 8.94443,-24.20492 12.07092,-20.70174 0.25785,0.28892 15.94787,9.37914 24.35264,12.99864 0.41773,0.1799 -4.706,-22.01067 -1.87404,-25.4647 2.46246,-3.00335 15.66663,-8.36666 17.3465,-1.74643 0.56976,2.24538 -3.82356,5.81764 -5.25124,9.8944 7.0226,2.4565 5.89255,5.48451 8.29331,4.8156 1.43934,-0.40103 13.71694,-7.06471 12.64897,-7.45486 -24.99528,-14.78849 16.54936,-38.84109 7.52205,-23.40593 -2.19001,3.73611 -16.08744,13.17302 -2.51477,18.27811 5.9209,1.23248 14.24253,-4.09627 18.82998,-8.83901 1.05686,-0.90983 4.32046,-28.09034 6.75129,-28.45851 1.57936,-0.2392 21.96797,11.16286 23.01057,10.67007 0,0 1.43875,0.72758 0.56459,-0.73387 -14.23568,-23.79983 -45.54459,-52.63971 -45.54459,-52.63971 z m 23.92391,73.95146 c -15.14705,7.31712 -33.47748,19.55962 -45.65168,25.2994 -0.64892,0.30628 -9.79577,-1.69876 -10.36364,-1.32898 -1.64995,6.30772 0.25056,10.91914 -4.06945,12.88673 -7.40677,3.3735 -23.05508,-8.05636 -23.05508,-8.05636 -7.38398,-2.701 -6.78881,14.07677 -9.99033,18.26366 l 6.78602,7.7774 c 5.20998,5.31618 10.51809,9.81167 15.62786,12.70757 7.46561,4.23108 17.51439,7.33288 28.43274,9.60487 1.13554,0.23629 -9.92123,-21.03894 -7.87584,-28.96479 0.35845,-1.38896 3.63625,-6.12269 5.7599,-4.35679 1.57978,7.54361 2.64352,16.27702 6.89271,22.56585 0.28663,0.86531 20.38798,-12.68013 18.85846,-11.75747 -40.53413,-27.30512 27.66537,-49.0348 17.12637,-8.90867 6.32299,-1.83807 14.71843,-4.44849 17.3206,-10.70085 1.16807,-2.80658 0.76384,-6.05601 -2.08176,-8.87583 -2.67305,-2.64883 -3.39466,3.4422 -4.58926,3.66679 -4.38221,0.8239 -8.54059,-7.89193 -4.01683,-9.89456 2.89488,-1.28157 17.57167,-12.72241 20.40231,-8.21297 0.53442,0.85135 1.18786,5.51156 0.58752,7.62141 -0.33595,1.18068 -7.07438,0.0924 -5.41744,4.14911 0.89636,2.19455 1.89268,8.34419 3.20382,11.18502 6.14961,-1.76379 2.4596,-0.53593 9.95018,-2.60407 -0.7375,-17.03059 -2.69444,-31.94356 -7.43038,-43.91476 -29.37544,-6.48463 -22.51746,-20.07726 -26.40679,11.84829 z m -58.63814,8.53193 c -0.15708,0.004 -0.32652,0.0572 -0.49778,0.15637 -0.68989,0.39937 -1.2492,1.43626 -1.24936,2.3162 -1.5e-4,0.88022 0.55925,1.27004 1.24936,0.87064 0.69006,-0.39948 1.24942,-1.4367 1.24936,-2.31671 2e-5,-0.63458 -0.29521,-1.03779 -0.75158,-1.0265 z m 43.81248,22.64997 c -4.0269,-0.14034 -7.39299,2.93527 -7.51842,6.86961 -0.1254,3.9345 3.03762,7.23778 7.06467,7.37797 4.0269,0.14035 7.39301,-2.93527 7.51843,-6.86961 0.1254,-3.9345 -3.03762,-7.23778 -7.06468,-7.37797 z m 48.81665,9.03305 c -28.27503,7.64909 -62.57452,24.14248 -68.58365,38.58514 31.58951,5.13409 67.87557,4.476 67.87557,4.476 0,0 1.53591,-19.221 0.70808,-43.06114 z" sodipodi:nodetypes="cccssssscsccccscsccccscccsssccccassssssccccccccccccsccccccc"/>
  </g>
</svg>